<?xml version="1.0" standalone="no"?>
<!DOCTYPE svg PUBLIC "-//W3C//DTD SVG 20010904//EN"
 "http://www.w3.org/TR/2001/REC-SVG-20010904/DTD/svg10.dtd">
<svg version="1.0" xmlns="http://www.w3.org/2000/svg"
 width="100.000000pt" height="100.000000pt" viewBox="0 0 100.000000 100.000000"
 preserveAspectRatio="xMidYMid meet">
<metadata>
Created by potrace 1.10, written by Peter Selinger 2001-2011
</metadata>
<g transform="translate(0.000000,100.000000) scale(0.100000,-0.100000)"
fill="#3d4849" stroke="none">
<path d="M230 889 c-122 -19 -190 -69 -190 -142 0 -32 21 -77 44 -96 14 -12
16 -47 16 -248 l0 -234 25 -24 24 -25 351 0 351 0 24 25 25 24 0 237 0 238 28
29 c22 23 27 37 27 78 0 44 -4 54 -32 79 -60 54 -112 63 -383 66 -135 1 -274
-2 -310 -7z m77 -40 c-25 -14 -47 -63 -47 -102 0 -22 11 -49 29 -75 l30 -40 3
-236 3 -236 -80 0 c-50 0 -86 5 -93 12 -9 9 -12 77 -12 244 l0 231 -30 38
c-70 88 -18 143 160 169 50 7 56 6 37 -5z m462 1 c144 -24 187 -82 121 -165
l-30 -38 0 -231 c0 -167 -3 -235 -12 -244 -17 -17 -459 -17 -476 0 -9 9 -12
77 -12 244 l0 231 -30 38 c-58 73 -27 139 76 161 73 15 277 17 363 4z"/>
<path d="M444 729 c-10 -17 13 -36 27 -22 12 12 4 33 -11 33 -5 0 -12 -5 -16
-11z"/>
<path d="M744 729 c-10 -17 13 -36 27 -22 12 12 4 33 -11 33 -5 0 -12 -5 -16
-11z"/>
<path d="M564 626 c-10 -26 4 -48 28 -44 17 2 23 10 23 28 0 18 -6 26 -23 28
-13 2 -25 -3 -28 -12z"/>
<path d="M724 526 c-10 -26 4 -48 28 -44 17 2 23 10 23 28 0 18 -6 26 -23 28
-13 2 -25 -3 -28 -12z"/>
<path d="M444 486 c-10 -26 4 -48 28 -44 33 4 33 52 0 56 -13 2 -25 -3 -28
-12z"/>
<path d="M564 389 c-10 -17 13 -36 27 -22 12 12 4 33 -11 33 -5 0 -12 -5 -16
-11z"/>
<path d="M684 306 c-10 -26 4 -48 28 -44 17 2 23 10 23 28 0 18 -6 26 -23 28
-13 2 -25 -3 -28 -12z"/>
<path d="M424 269 c-10 -17 13 -36 27 -22 12 12 4 33 -11 33 -5 0 -12 -5 -16
-11z"/>
</g>
</svg>
