<svg width="35" height="35" viewBox="0 0 35 35" fill="none" xmlns="http://www.w3.org/2000/svg">
<g clip-path="url(#clip0_281_948)">
<path d="M33.4155 5.8686H25.7148C25.7283 5.78523 25.7386 5.70061 25.7386 5.61308V1.49553C25.7386 0.951134 25.4787 0.465515 25.0429 0.197069C24.607 -0.0717927 24.0903 -0.0651234 23.661 0.214993L17.3399 4.33213C17.3077 4.35297 17.2801 4.37881 17.2498 4.40216C17.2199 4.37881 17.1923 4.35339 17.1601 4.33254L10.8386 0.214993C10.4089 -0.0642897 9.89257 -0.0713759 9.4571 0.197069C9.02126 0.465515 8.76136 0.951134 8.76136 1.49553V5.61266C8.76136 5.7002 8.77171 5.78482 8.78513 5.86818H1.08405C0.486444 5.8686 0 6.39716 0 7.04701V11.2238C0 11.8736 0.486444 12.4026 1.08405 12.4026H2.04736V32.8094C2.04736 33.7415 2.74463 34.5001 3.60176 34.5001H14.6117H19.8879H30.8982C31.7553 34.5001 32.4526 33.7415 32.4526 32.8094V12.4026H33.4159C34.0139 12.4026 34.5 11.8736 34.5 11.2238V7.04701C34.4996 6.39716 34.0135 5.8686 33.4155 5.8686ZM17.9241 5.3934L24.2452 1.27627C24.2881 1.24834 24.3287 1.23834 24.3651 1.23834C24.415 1.23834 24.4564 1.25709 24.4821 1.27293C24.5265 1.30045 24.6013 1.36589 24.6013 1.49553V5.61266C24.6013 5.75355 24.4959 5.86818 24.3663 5.86818H22.3155H18.0452C17.8976 5.86818 17.8432 5.76397 17.8229 5.69311C17.8259 5.63392 17.8294 5.57431 17.8263 5.51595C17.8417 5.47302 17.8689 5.42925 17.9241 5.3934ZM21.1778 11.1658H19.8875H14.6117H13.3214V7.10537H16.4548H18.0452H21.1781V11.1658H21.1778ZM9.89832 5.61266V1.49553C9.89832 1.36589 9.97306 1.30045 10.0175 1.27293C10.0436 1.25709 10.0846 1.23834 10.1344 1.23834C10.1705 1.23834 10.2111 1.24834 10.254 1.27585L16.5755 5.3934C16.6307 5.42967 16.6576 5.47302 16.6733 5.51679C16.6702 5.57473 16.6737 5.63392 16.6767 5.69269C16.6564 5.76356 16.6024 5.8686 16.4544 5.8686H12.1841H10.1337C10.0041 5.8686 9.89832 5.75355 9.89832 5.61266ZM1.13734 11.1658V7.10537H10.1337H12.1841V11.1658H2.04736H1.13734ZM3.60176 33.2629C3.37176 33.2629 3.1847 33.0591 3.1847 32.8094V12.4026H12.1841H14.6117V33.2629H3.60176V33.2629ZM15.7491 33.2629V12.4026H18.7505V33.2629H15.7491V33.2629ZM31.3149 32.8094C31.3149 33.0595 31.1278 33.2629 30.8978 33.2629H19.8879V12.4026H22.3155H31.3149V32.8094ZM33.3623 11.1658H32.4522H22.3155V7.10537H24.3663H33.3626V11.1658H33.3623Z" fill="#3D4849"/>
</g>
<defs>
<clipPath id="clip0_281_948">
<rect width="34.5" height="34.5" fill="white"/>
</clipPath>
</defs>
</svg>
