 <svg  version="1.0" xmlns="http://www.w3.org/2000/svg"  width="300.000000pt" height="300.000000pt" viewBox="0 0 300.000000 300.000000"  preserveAspectRatio="xMidYMid meet">  <g transform="translate(0.000000,300.000000) scale(0.100000,-0.100000)" fill="#3d4849" stroke="none"> <path d="M2680 2982 c-85 -32 -127 -61 -193 -132 -147 -159 -248 -453 -266 -770 l-6 -115 -85 0 -85 0 -5 435 c-4 328 -8 441 -18 457 -18 31 -83 63 -129 63 -21 -1 -53 -9 -72 -19 -34 -18 -36 -18 -65 0 -39 24 -102 24 -145 1 -33 -18 -35 -18 -70 0 -45 23 -85 23 -136 -1 -39 -18 -42 -18 -75 0 -93 50 -220 -18 -220 -117 l0 -34 -494 0 c-326 0 -503 -4 -524 -11 -55 -19 -62 -42 -62 -199 l0 -142 29 -29 29 -29 511 0 511 0 0 -190 0 -190 -183 0 c-227 0 -227 0 -227 -102 0 -48 5 -79 17 -99 10 -16 20 -29 23 -29 3 0 15 -8 27 -18 20 -16 33 -81 143 -760 66 -409 120 -769 120 -800 0 -69 23 -112 73 -135 31 -15 85 -17 486 -17 499 0 503 0 541 62 13 22 20 50 20 87 0 30 54 390 121 800 110 682 122 747 142 761 41 28 56 49 67 92 16 57 7 118 -21 140 l-21 18 35 109 c40 124 103 257 167 352 23 35 105 126 181 201 82 80 141 148 145 163 15 62 -46 162 -120 196 -51 23 -107 23 -166 1z m152 -92 c14 -10 31 -33 38 -51 l13 -31 -115 -112 c-63 -61 -141 -147 -174 -192 -95 -128 -181 -310 -230 -486 -13 -51 -19 -58 -40 -58 l-25 0 6 88 c32 432 170 745 369 838 63 29 124 31 158 4z m-1528 -76 c14 -14 16 -67 16 -435 l0 -419 -60 0 -60 0 0 419 c0 461 -1 451 60 451 16 0 36 -7 44 -16z m207 6 c18 -10 19 -26 19 -435 l0 -425 -60 0 -60 0 0 417 c0 373 2 418 17 435 18 20 54 23 84 8z m223 -12 c14 -19 16 -78 16 -435 l0 -413 -65 0 -65 0 0 417 c0 373 2 418 17 435 23 26 78 24 97 -4z m210 0 c14 -19 16 -78 16 -435 l0 -413 -65 0 -65 0 0 417 c0 373 2 418 17 435 23 26 78 24 97 -4z m-834 -183 l0 -35 -495 0 -495 0 0 35 0 35 495 0 495 0 0 -35z m0 -160 l0 -35 -495 0 -495 0 0 35 0 35 495 0 495 0 0 -35z m1288 -627 c-5 -56 -18 -58 -370 -58 -307 0 -318 -1 -328 -20 -8 -14 -8 -26 0 -40 10 -19 21 -20 305 -20 224 0 295 -3 295 -12 0 -14 -218 -1361 -225 -1395 -5 -23 -7 -23 -185 -23 -167 0 -180 -1 -190 -19 -12 -24 -4 -48 21 -61 10 -6 92 -10 183 -10 l166 0 0 -23 c0 -12 -7 -33 -16 -45 l-15 -22 -448 0 c-334 0 -450 3 -459 12 -7 7 -12 27 -12 45 l0 33 204 0 c221 0 256 6 256 43 0 45 -11 47 -246 47 l-222 0 -6 28 c-8 36 -226 1382 -226 1393 0 5 151 9 339 9 365 0 367 0 359 52 l-3 23 -383 5 c-365 5 -384 6 -398 24 -8 11 -14 30 -14 43 l0 23 811 0 810 0 -3 -32z"/> <path d="M1490 1501 c-208 -68 -344 -294 -327 -541 13 -190 131 -373 281 -435 231 -97 486 55 556 331 64 250 -42 519 -245 618 -51 25 -74 30 -150 33 -49 1 -101 -1 -115 -6z m217 -101 c132 -57 223 -217 223 -394 0 -134 -37 -233 -122 -322 -182 -193 -469 -91 -543 193 -29 109 -17 238 30 338 83 176 255 252 412 185z"/> <path d="M1434 1185 c-41 -55 -43 -110 -5 -191 37 -78 38 -93 10 -128 -29 -37 -19 -76 19 -76 47 0 92 64 92 128 0 15 -13 54 -30 87 -34 70 -37 101 -10 135 23 29 25 51 8 68 -22 22 -56 13 -84 -23z"/> <path d="M1680 1200 c-27 -27 -50 -81 -50 -117 0 -15 14 -57 30 -91 36 -76 37 -98 9 -128 -26 -28 -19 -69 12 -79 16 -6 30 1 57 28 51 51 55 111 13 195 -37 73 -38 82 -8 132 17 31 20 43 11 57 -16 26 -50 27 -74 3z"/> </g> </svg> 