<?xml version="1.0" standalone="no"?>
<!DOCTYPE svg PUBLIC "-//W3C//DTD SVG 20010904//EN"
 "http://www.w3.org/TR/2001/REC-SVG-20010904/DTD/svg10.dtd">
<svg version="1.0" xmlns="http://www.w3.org/2000/svg"
 width="100.000000pt" height="100.000000pt" viewBox="0 0 100.000000 100.000000"
 preserveAspectRatio="xMidYMid meet">
<metadata>
Created by potrace 1.10, written by Peter Selinger 2001-2011
</metadata>
<g transform="translate(0.000000,100.000000) scale(0.100000,-0.100000)"
fill="#3d4849" stroke="none">
<path d="M93 916 c25 -64 27 -96 10 -162 -24 -99 -24 -403 0 -494 15 -58 15
-71 3 -125 -8 -33 -14 -61 -12 -62 1 -1 24 4 51 12 38 12 56 13 82 4 24 -7 42
-8 63 0 21 7 39 7 60 0 21 -8 39 -8 60 0 21 7 39 7 60 0 21 -8 39 -8 60 0 21
7 39 7 60 0 21 -8 39 -8 60 0 21 7 39 7 60 0 21 -8 39 -7 63 0 26 9 44 8 82
-4 27 -8 50 -13 51 -12 2 1 -4 29 -11 62 -13 53 -13 69 3 140 23 108 22 347
-1 466 -15 77 -16 91 -2 134 8 27 13 50 12 52 -2 1 -25 -4 -52 -12 -38 -12
-56 -13 -82 -4 -24 7 -42 8 -63 0 -21 -7 -39 -7 -60 0 -21 8 -39 8 -60 0 -21
-7 -39 -7 -60 0 -21 8 -39 8 -60 0 -21 -7 -39 -7 -60 0 -21 8 -39 8 -60 0 -21
-7 -39 -7 -60 0 -21 8 -39 7 -63 0 -26 -9 -44 -8 -83 4 -60 18 -57 18 -51 1z
m230 -49 c15 1 41 2 57 2 17 0 44 0 60 0 17 0 44 0 60 0 17 0 44 0 60 0 17 0
44 0 60 0 17 0 44 0 60 0 17 0 45 0 63 0 17 0 49 -1 70 -1 35 0 38 -2 33 -23
-3 -13 2 -61 11 -107 24 -118 23 -356 0 -466 -14 -61 -16 -91 -9 -112 l10 -28
-51 -1 c-29 0 -63 0 -77 0 -14 1 -37 1 -52 0 -16 0 -41 0 -58 0 -16 0 -43 0
-60 0 -16 0 -43 0 -60 0 -16 0 -43 0 -60 0 -16 0 -43 0 -60 0 -16 0 -42 0 -57
0 -16 1 -39 1 -53 0 -14 0 -48 0 -76 0 -48 1 -51 2 -46 25 l4 24 322 2 c277 3
321 5 321 18 0 13 -44 15 -322 18 l-321 2 -12 53 c-19 85 -24 274 -10 383 6
56 15 106 19 112 5 8 100 12 327 14 276 3 319 5 319 18 0 13 -43 15 -314 18
-321 2 -330 3 -331 40 0 10 8 12 28 7 16 -3 39 -1 53 4 13 5 33 7 44 3 11 -3
32 -6 48 -5z"/>
<path d="M292 624 c-54 -38 -68 -127 -29 -184 47 -70 63 -75 220 -75 119 0
148 3 180 19 76 38 118 147 83 214 -20 39 -54 49 -115 33 -139 -37 -139 -37
-206 -13 -75 26 -103 27 -133 6z m116 -44 c62 -24 119 -26 167 -6 42 18 43 13
9 -39 -81 -121 -156 -159 -240 -119 -56 27 -80 95 -53 147 23 43 41 46 117 17z
m300 8 c20 -20 14 -82 -11 -119 -28 -42 -79 -69 -131 -69 l-40 0 26 28 c14 15
47 60 72 100 46 72 61 83 84 60z"/>
<path d="M324 529 c-10 -17 13 -36 27 -22 12 12 4 33 -11 33 -5 0 -12 -5 -16
-11z"/>
<path d="M404 529 c-10 -17 13 -36 27 -22 12 12 4 33 -11 33 -5 0 -12 -5 -16
-11z"/>
<path d="M364 469 c-10 -17 13 -36 27 -22 12 12 4 33 -11 33 -5 0 -12 -5 -16
-11z"/>
</g>
</svg>
