<?xml version="1.0" standalone="no"?>
<!DOCTYPE svg PUBLIC "-//W3C//DTD SVG 20010904//EN"
 "http://www.w3.org/TR/2001/REC-SVG-20010904/DTD/svg10.dtd">
<svg version="1.0" xmlns="http://www.w3.org/2000/svg"
 width="64.000000pt" height="64.000000pt" viewBox="0 0 64.000000 64.000000"
 preserveAspectRatio="xMidYMid meet">
<metadata>
Created by potrace 1.10, written by Peter Selinger 2001-2011
</metadata>
<g transform="translate(0.000000,64.000000) scale(0.100000,-0.100000)"
fill="#3d4849" stroke="none">
<path d="M150 605 c-19 -14 -40 -25 -48 -25 -19 0 -10 -34 38 -142 22 -47 42
-98 46 -112 7 -28 24 -36 24 -11 0 16 -27 84 -74 188 -24 53 -25 58 -9 64 10
4 30 15 45 26 25 18 32 19 87 7 50 -10 72 -10 122 0 55 12 62 11 87 -7 15 -11
35 -22 45 -26 16 -6 15 -11 -9 -64 -74 -167 -86 -203 -65 -203 5 0 12 12 15
26 4 14 24 65 46 112 55 124 57 135 23 150 -15 6 -40 20 -55 29 -23 15 -33 16
-91 4 -48 -9 -74 -10 -103 -2 -59 17 -87 13 -124 -14z"/>
<path d="M192 552 c2 -4 11 -28 22 -55 18 -44 36 -62 36 -34 -1 23 -39 97 -50
97 -7 0 -10 -3 -8 -8z"/>
<path d="M406 423 c-33 -81 -41 -113 -30 -113 10 0 75 147 74 168 0 29 -18 7
-44 -55z"/>
<path d="M250 368 c0 -25 12 -58 21 -58 10 0 12 31 3 54 -7 19 -24 21 -24 4z"/>
<path d="M61 292 l-51 -78 0 -102 0 -102 310 0 310 0 0 102 0 102 -51 78 c-40
61 -57 78 -75 78 -13 0 -24 -4 -24 -10 0 -5 8 -10 18 -10 10 0 34 -27 60 -65
l42 -65 -280 0 -280 0 42 65 c26 38 50 65 61 65 9 0 17 5 17 10 0 6 -11 10
-24 10 -18 0 -35 -17 -75 -78z m549 -177 l0 -85 -290 0 -290 0 0 85 0 85 290
0 290 0 0 -85z"/>
<path d="M144 305 c-4 -8 -4 -22 0 -30 5 -13 31 -15 178 -13 l173 3 0 24 c0
13 -6 26 -14 29 -9 3 -11 -1 -6 -17 6 -21 5 -21 -155 -21 -157 0 -161 1 -155
20 7 23 -13 28 -21 5z"/>
</g>
</svg>
