<?xml version="1.0" standalone="no"?>
<!DOCTYPE svg PUBLIC "-//W3C//DTD SVG 20010904//EN"
 "http://www.w3.org/TR/2001/REC-SVG-20010904/DTD/svg10.dtd">
<svg version="1.0" xmlns="http://www.w3.org/2000/svg"
 width="100.000000pt" height="100.000000pt" viewBox="0 0 100.000000 100.000000"
 preserveAspectRatio="xMidYMid meet">
<metadata>
Created by potrace 1.10, written by Peter Selinger 2001-2011
</metadata>
<g transform="translate(0.000000,100.000000) scale(0.100000,-0.100000)"
fill="#3d4849" stroke="none">
<path d="M770 964 c-19 -8 -43 -22 -53 -32 -10 -9 -30 -18 -45 -20 -56 -7 -87
-39 -142 -142 -68 -126 -125 -199 -185 -236 -130 -81 -172 -112 -196 -148 -14
-21 -41 -47 -60 -57 -61 -31 -82 -62 -82 -121 0 -106 48 -150 168 -153 39 -1
90 -10 115 -19 110 -43 250 26 454 224 149 144 226 263 245 377 10 65 0 147
-23 172 -8 10 -12 29 -9 47 14 89 -91 150 -187 108z m118 -44 c24 -15 32 -27
32 -48 0 -40 -26 -72 -59 -72 -60 0 -113 -58 -211 -232 -41 -73 -110 -149
-213 -237 -86 -73 -106 -108 -88 -148 6 -14 10 -27 9 -28 -2 -1 -34 -15 -72
-30 -45 -17 -90 -27 -129 -28 -53 -2 -61 1 -83 26 -28 33 -40 90 -26 122 14
30 69 59 192 100 143 48 208 83 270 146 67 69 105 131 170 278 27 63 57 123
67 134 37 41 91 47 141 17z m-253 -153 c-71 -160 -127 -240 -211 -298 -48 -33
-223 -104 -232 -94 -9 9 44 49 120 91 112 62 181 142 262 302 24 48 47 79 68
92 18 11 34 18 35 16 2 -2 -17 -51 -42 -109z m325 -74 c1 -103 -85 -249 -231
-394 -171 -170 -332 -258 -421 -233 l-33 10 68 31 c37 18 67 36 67 41 0 4 -7
17 -15 28 -8 10 -15 26 -15 35 0 9 48 58 106 109 116 102 154 148 237 290 67
116 104 153 152 154 19 1 40 7 47 14 11 11 15 8 25 -15 7 -15 12 -47 13 -70z"/>
</g>
</svg>
