<?xml version="1.0" standalone="no"?>
<!DOCTYPE svg PUBLIC "-//W3C//DTD SVG 20010904//EN"
 "http://www.w3.org/TR/2001/REC-SVG-20010904/DTD/svg10.dtd">
<svg version="1.0" xmlns="http://www.w3.org/2000/svg"
 width="100.000000pt" height="100.000000pt" viewBox="0 0 100.000000 100.000000"
 preserveAspectRatio="xMidYMid meet">
<metadata>
Created by potrace 1.10, written by Peter Selinger 2001-2011
</metadata>
<g transform="translate(0.000000,100.000000) scale(0.100000,-0.100000)"
fill="#3d4849" stroke="none">
<path d="M635 949 c-38 -5 -75 -11 -81 -13 -6 -2 -19 -35 -28 -73 -9 -37 -21
-85 -27 -105 l-10 -38 -120 0 c-115 0 -121 -1 -145 -25 -33 -33 -31 -88 4 -93
17 -3 22 -10 22 -35 1 -18 16 -134 34 -259 25 -173 37 -233 51 -248 17 -18 31
-20 165 -20 134 0 148 2 165 20 14 15 26 75 51 248 18 125 33 241 34 259 0 25
5 32 23 35 34 5 36 60 3 93 -24 24 -31 25 -137 25 -85 0 -110 3 -106 13 2 6
12 47 22 89 20 82 25 88 91 88 60 0 94 11 94 31 0 21 0 21 -105 8z m113 -281
c7 -7 12 -16 12 -20 0 -4 -117 -8 -260 -8 -143 0 -260 4 -260 8 0 28 30 32
260 32 170 0 239 -3 248 -12z m-31 -80 c-2 -7 -12 -70 -22 -140 -16 -111 -20
-128 -37 -128 -22 0 -24 -26 -2 -38 24 -13 14 -56 -13 -60 -28 -4 -30 -32 -4
-39 16 -4 19 -11 14 -41 -2 -21 -6 -43 -9 -49 -5 -18 -283 -18 -288 0 -3 6 -7
28 -9 49 -5 30 -2 37 14 41 26 7 24 35 -3 39 -28 4 -38 47 -14 60 22 12 20 38
-2 38 -17 0 -21 17 -37 128 -10 70 -20 133 -22 140 -4 9 43 12 217 12 174 0
221 -3 217 -12z"/>
<path d="M370 465 c-26 -32 13 -81 48 -59 22 14 27 41 12 59 -16 19 -44 19
-60 0z"/>
<path d="M570 465 c-15 -18 -10 -45 13 -59 34 -22 73 27 47 59 -16 19 -44 19
-60 0z"/>
<path d="M403 304 c-8 -20 17 -40 68 -55 30 -10 43 -8 82 9 45 20 59 43 36 57
-5 4 -18 0 -27 -8 -31 -28 -69 -31 -107 -8 -43 25 -44 25 -52 5z"/>
</g>
</svg>
