<?xml version="1.0" standalone="no"?>
<!DOCTYPE svg PUBLIC "-//W3C//DTD SVG 20010904//EN"
 "http://www.w3.org/TR/2001/REC-SVG-20010904/DTD/svg10.dtd">
<svg version="1.0" xmlns="http://www.w3.org/2000/svg"
 width="100.000000pt" height="100.000000pt" viewBox="0 0 100.000000 100.000000"
 preserveAspectRatio="xMidYMid meet">
<metadata>
Created by potrace 1.10, written by Peter Selinger 2001-2011
</metadata>
<g transform="translate(0.000000,100.000000) scale(0.100000,-0.100000)"
fill="#3d4849" stroke="none">
<path d="M327 974 c-4 -4 -7 -25 -7 -47 0 -27 -12 -62 -40 -112 l-40 -73 2
-348 3 -349 245 0 245 0 3 351 2 351 -27 59 c-15 32 -29 84 -32 114 l-6 55
-171 3 c-93 1 -173 -1 -177 -4z m313 -54 c0 -19 -7 -20 -140 -20 -133 0 -140
1 -140 20 0 19 7 20 140 20 133 0 140 -1 140 -20z m-10 -65 c0 -2 -10 -25 -22
-50 l-22 -45 -148 0 -147 0 31 50 31 50 138 0 c77 0 139 -2 139 -5z m54 -78
c21 -55 24 -326 4 -310 -7 6 -25 13 -40 17 l-28 6 0 122 c0 89 4 134 16 165 9
24 20 43 24 43 4 0 15 -19 24 -43z m-104 -176 l0 -118 -36 -6 c-47 -8 -75 7
-115 59 -37 49 -89 79 -125 70 -23 -6 -24 -5 -24 54 l0 60 150 0 150 0 0 -119z
m-181 -91 c65 -68 98 -85 147 -71 l34 9 0 -184 0 -184 -150 0 -150 0 0 239 c0
182 3 241 13 244 32 14 53 3 106 -53z m275 -81 l26 -20 0 -165 0 -164 -40 0
-40 0 0 185 c0 201 1 205 54 164z"/>
</g>
</svg>
