<svg width="37" height="38" viewBox="0 0 37 38" fill="none" xmlns="http://www.w3.org/2000/svg">
<path d="M25.9525 5.085C26.3375 5.47005 26.53 5.92595 26.53 6.45271C26.53 6.97843 26.3375 7.43382 25.9525 7.81887L14.6704 19.1009L25.991 30.4214C26.3503 30.7808 26.53 31.23 26.53 31.7691C26.53 32.3081 26.3375 32.7702 25.9525 33.1552C25.5674 33.5403 25.1115 33.7328 24.5848 33.7328C24.059 33.7328 23.6036 33.5403 23.2186 33.1552L10.2809 20.179C10.1268 20.025 10.0175 19.8581 9.9528 19.6784C9.88914 19.4988 9.85731 19.3062 9.85731 19.1009C9.85731 18.8955 9.88914 18.703 9.9528 18.5233C10.0175 18.3436 10.1268 18.1767 10.2809 18.0227L23.2571 5.0465C23.6165 4.68712 24.059 4.50743 24.5848 4.50743C25.1115 4.50743 25.5674 4.69995 25.9525 5.085Z" fill="#007CFF"/>
</svg>
