<svg width="37" height="38" viewBox="0 0 37 38" fill="none" xmlns="http://www.w3.org/2000/svg">
<path d="M11.0475 33.3308C10.6625 32.9457 10.47 32.4898 10.47 31.9631C10.47 31.4374 10.6625 30.982 11.0475 30.5969L22.3296 19.3149L11.009 7.99442C10.6497 7.63504 10.47 7.18582 10.47 6.64675C10.47 6.10767 10.6625 5.64561 11.0475 5.26056C11.4326 4.87551 11.8885 4.68298 12.4152 4.68298C12.941 4.68298 13.3964 4.87551 13.7814 5.26056L26.7191 18.2368C26.8732 18.3908 26.9825 18.5577 27.0472 18.7374C27.1109 18.917 27.1427 19.1096 27.1427 19.3149C27.1427 19.5203 27.1109 19.7128 27.0472 19.8925C26.9825 20.0722 26.8732 20.2391 26.7191 20.3931L13.7429 33.3693C13.3835 33.7287 12.941 33.9084 12.4152 33.9084C11.8885 33.9084 11.4326 33.7159 11.0475 33.3308Z" fill="#007CFF"/>
</svg>
