<?xml version="1.0" standalone="no"?>
<!DOCTYPE svg PUBLIC "-//W3C//DTD SVG 20010904//EN"
 "http://www.w3.org/TR/2001/REC-SVG-20010904/DTD/svg10.dtd">
<svg version="1.0" xmlns="http://www.w3.org/2000/svg"
 width="200.000000pt" height="60.000000pt" viewBox="0 0 200.000000 60.000000"
 preserveAspectRatio="xMidYMid meet">

<g transform="translate(0.000000,60.000000) scale(0.100000,-0.100000)"
fill="#000000" stroke="none">
<path d="M35 565 l-25 -24 0 -241 0 -241 25 -24 24 -25 941 0 941 0 24 25 25
24 0 241 0 241 -25 24 -24 25 -941 0 -941 0 -24 -25z m639 -71 c25 -10 19 -20
-11 -19 -21 0 -29 -5 -31 -21 -4 -25 20 -47 42 -38 21 8 20 21 -1 27 -12 3 -8
5 9 6 21 1 25 -3 21 -19 -8 -32 -53 -38 -75 -10 -23 28 -23 35 2 60 22 22 22
22 44 14z m407 -4 c23 -13 26 -62 4 -80 -23 -19 -64 -4 -71 27 -5 20 -2 31 16
45 26 21 26 21 51 8z m-751 -86 c82 -47 152 -90 156 -95 8 -14 -8 -31 -51 -54
l-37 -19 -28 31 -29 32 -87 -90 c-48 -49 -91 -89 -96 -89 -10 0 -11 354 -1
363 12 12 22 8 173 -79z m423 79 c-13 -2 -23 -8 -23 -13 0 -4 10 -11 23 -15
l22 -8 -22 -4 c-28 -5 -30 -23 -3 -23 11 0 20 -4 20 -10 0 -5 -11 -10 -25 -10
-23 0 -25 4 -25 45 0 43 1 45 28 44 23 -2 24 -2 5 -6z m80 -1 c-6 -4 -13 -25
-16 -47 l-4 -40 -1 42 c-2 30 -7 43 -19 46 -10 3 -2 5 17 6 19 0 30 -3 23 -7z
m64 -59 c-2 -16 -4 -5 -4 22 0 28 2 40 4 28 2 -13 2 -35 0 -50z m71 60 c-13
-3 -18 -16 -20 -46 l-1 -42 -4 42 c-3 29 -9 43 -21 46 -9 3 1 5 23 5 22 0 32
-2 23 -5z m186 -20 l15 -28 1 28 c0 15 5 27 10 27 6 0 10 -20 10 -45 0 -53 -9
-57 -35 -12 l-20 32 -6 -35 c-6 -33 -6 -32 -8 13 -1 53 11 60 33 20z m-395
-132 c23 -15 4 -31 -24 -21 -67 25 -121 -48 -79 -108 18 -26 74 -30 98 -6 24
23 19 34 -14 34 -20 0 -30 5 -30 16 0 12 9 14 43 12 41 -3 42 -4 40 -38 -2
-45 -33 -70 -85 -70 -85 0 -128 93 -72 159 21 26 33 31 67 31 23 0 48 -4 56
-9z m491 -86 c0 -78 -3 -95 -15 -95 -12 0 -15 17 -15 95 0 78 3 95 15 95 12 0
15 -17 15 -95z m300 73 c11 -12 20 -30 20 -40 0 -28 -37 -58 -70 -58 -28 0
-30 -3 -30 -35 0 -24 -5 -35 -15 -35 -12 0 -15 17 -15 95 l0 95 45 0 c33 0 50
-6 65 -22z m60 -73 c0 -78 -3 -95 -15 -95 -12 0 -15 17 -15 95 0 78 3 95 15
95 12 0 15 -17 15 -95z m-705 19 c37 -15 38 -82 1 -106 -38 -26 -96 7 -96 53
0 48 44 72 95 53z m149 -10 c21 -20 20 -63 -1 -86 -20 -22 -66 -24 -87 -2 -20
20 -20 68 0 88 20 20 68 20 88 0z m156 -40 c0 -56 -14 -104 -33 -116 -31 -20
-103 10 -80 33 8 8 13 8 17 0 7 -10 56 -16 56 -7 0 2 2 11 5 19 5 10 -1 13
-22 10 -39 -6 -66 17 -66 55 0 47 18 62 74 60 l49 -1 0 -53z m154 40 c24 -23
20 -29 -26 -47 -33 -14 -39 -20 -30 -29 10 -10 17 -10 33 0 25 16 45 6 28 -14
-26 -31 -93 -11 -103 32 -15 57 57 100 98 58z m354 4 c7 -7 12 -33 12 -58 l0
-47 -45 -1 c-36 -2 -46 2 -55 19 -15 26 12 59 47 59 15 0 22 4 18 11 -4 6 -19
7 -36 4 -27 -6 -38 3 -22 18 11 12 68 8 81 -5z m64 -25 l15 -38 17 38 c9 20
23 37 32 37 9 0 14 -4 12 -8 -53 -128 -75 -172 -87 -172 -8 0 -11 6 -7 16 16
41 17 64 3 90 -25 50 -30 74 -14 74 8 0 21 -17 29 -37z"/>
<path d="M1030 461 c-7 -15 -6 -24 6 -36 9 -9 21 -14 27 -12 18 6 31 33 24 51
-9 22 -44 20 -57 -3z"/>
<path d="M1470 280 c0 -26 3 -30 29 -30 16 0 31 6 35 15 10 26 -5 45 -35 45
-26 0 -29 -4 -29 -30z"/>
<path d="M853 243 c-25 -10 -9 -73 18 -73 10 0 39 30 39 40 0 11 -29 40 -38
39 -4 0 -13 -3 -19 -6z"/>
<path d="M986 234 c-9 -8 -16 -19 -16 -24 0 -10 29 -40 39 -40 29 0 42 64 15
74 -21 8 -20 8 -38 -10z"/>
<path d="M1122 238 c-30 -30 11 -85 44 -57 25 21 11 69 -21 69 -6 0 -16 -5
-23 -12z"/>
<path d="M1300 235 c-8 -9 -8 -15 -2 -15 18 0 42 12 42 21 0 14 -26 10 -40 -6z"/>
<path d="M1660 200 c-11 -7 -12 -12 -3 -21 15 -15 43 -5 43 16 0 17 -18 19
-40 5z"/>
</g>
</svg>
