<?xml version="1.0" standalone="no"?>
<!DOCTYPE svg PUBLIC "-//W3C//DTD SVG 20010904//EN"
 "http://www.w3.org/TR/2001/REC-SVG-20010904/DTD/svg10.dtd">
<svg version="1.0" xmlns="http://www.w3.org/2000/svg"
 width="270.000000pt" height="270.000000pt" viewBox="0 0 270.000000 270.000000"
 preserveAspectRatio="xMidYMid meet">

<g transform="translate(0.000000,270.000000) scale(0.100000,-0.100000)"
fill="#000000" stroke="none">
<path d="M677 1973 c-4 -3 -7 -51 -7 -105 l0 -98 -56 -72 c-40 -52 -54 -78
-52 -97 3 -23 8 -26 51 -29 l47 -3 0 -339 0 -339 -47 -3 c-48 -3 -48 -3 -48
-38 l0 -35 825 0 825 0 3 38 3 37 -50 0 -51 0 0 340 0 340 50 0 c50 0 50 0 50
33 0 24 -13 48 -52 97 l-53 65 -5 105 -5 105 -711 3 c-391 1 -714 -1 -717 -5z
m506 -80 c1 -4 -96 -9 -215 -11 l-218 -2 0 -30 c0 -20 -5 -30 -15 -30 -11 0
-15 11 -15 38 0 21 2 41 4 43 8 8 456 0 459 -8z m138 5 c-1 -5 -3 -7 -4 -5 -2
1 -11 -4 -20 -11 -16 -13 -13 -42 4 -42 4 0 6 7 3 15 -4 10 0 15 11 15 24 0
16 -44 -9 -48 -20 -4 -46 21 -46 44 0 18 30 45 47 42 8 -2 14 -6 14 -10z m67
-6 c2 -8 -3 -10 -15 -6 -13 4 -11 0 7 -15 23 -19 24 -21 8 -37 -17 -17 -48
-13 -48 5 0 6 8 8 18 4 16 -6 16 -5 0 14 -21 23 -23 39 -5 46 17 7 30 3 35
-11z m670 -32 c2 -23 -1 -40 -7 -40 -6 0 -11 14 -11 30 l0 30 -220 0 c-169 0
-220 3 -220 13 0 9 51 12 227 10 l228 -2 3 -41z m-608 21 c0 -11 -5 -23 -11
-27 -8 -4 -7 -9 2 -15 10 -6 5 -9 -15 -9 -28 0 -28 0 -12 25 20 31 20 36 -1
28 -11 -4 -14 -3 -9 5 12 20 46 14 46 -7z m46 10 c-19 -7 -19 -8 2 -13 26 -7
29 -30 6 -48 -12 -11 -18 -10 -32 4 -16 17 -16 18 6 11 14 -4 22 -2 22 5 0 7
-9 14 -19 17 -26 7 -15 33 13 32 20 0 20 -1 2 -8z m638 -191 c20 -25 36 -47
36 -50 0 -3 -351 -5 -780 -5 -429 0 -780 2 -780 4 0 2 18 24 39 50 l40 47 704
0 705 -1 36 -45z m56 -95 c0 -13 -96 -15 -800 -15 -704 0 -800 2 -800 15 0 13
96 15 800 15 704 0 800 -2 800 -15z m-210 -375 l0 -340 -90 0 -90 0 0 285 0
285 -407 -2 -408 -3 -2 -280 -2 -280 -91 -3 -90 -3 0 334 c0 183 3 337 7 340
3 4 269 7 590 7 l583 0 0 -340z m-1210 -5 l0 -335 -40 0 -40 0 0 335 0 335 40
0 40 0 0 -335z m1320 -1 l0 -335 -37 3 -38 3 -3 333 -2 332 40 0 40 0 0 -336z
m-710 -59 l0 -275 -185 0 -185 0 0 275 0 275 185 0 185 0 0 -275z m390 0 l0
-275 -182 2 -183 3 -3 260 c-1 143 0 265 3 272 3 10 48 13 185 13 l180 0 0
-275z"/>
<path d="M1294 1187 c-3 -8 -4 -36 -2 -63 3 -47 4 -49 36 -52 l33 -3 -3 63
c-3 60 -4 63 -31 66 -17 2 -29 -2 -33 -11z m33 -69 c-2 -13 -4 -5 -4 17 -1 22
1 32 4 23 2 -10 2 -28 0 -40z"/>
<path d="M1424 1187 c-3 -8 -4 -36 -2 -63 3 -47 4 -49 36 -52 l33 -3 -3 63
c-3 60 -4 63 -31 66 -17 2 -29 -2 -33 -11z m33 -69 c-2 -13 -4 -5 -4 17 -1 22
1 32 4 23 2 -10 2 -28 0 -40z"/>
</g>
</svg>
