<?xml version="1.0" encoding="utf-8"?>
<!-- Generator: Adobe Illustrator 16.0.0, SVG Export Plug-In . SVG Version: 6.00 Build 0)  -->
<!DOCTYPE svg PUBLIC "-//W3C//DTD SVG 1.1//EN" "http://www.w3.org/Graphics/SVG/1.1/DTD/svg11.dtd">
<svg version="1.1" id="레이어_1" xmlns="http://www.w3.org/2000/svg" xmlns:xlink="http://www.w3.org/1999/xlink" x="0px"
	 y="0px" width="600px" height="207.432px" viewBox="0 0 600 207.432" enable-background="new 0 0 600 207.432"
	 xml:space="preserve">
<g>
	<g>
		<g>
			<g>
				<path fill-rule="evenodd" clip-rule="evenodd" fill="#006FBA" d="M163.136,177.632V92.548H89.904l5.132,32.143h30.343v31.121
					c-7.071,3.851-13.935,5.611-23.563,5.611c-30.152,0-45.315-23.086-45.315-55.966c0-32.698,14.651-54.979,44.826-54.979
					c18.012,0,33.437,6.582,46.586,14.939l5.84-37.725C139.811,19.824,121.832,14.78,100.3,14.78
					c-53.964,0-87.138,36.68-87.138,90.911c0,53.972,30.66,90.439,86.129,90.439C123.359,196.13,144.895,189.556,163.136,177.632z"
					/>
				<path fill-rule="evenodd" clip-rule="evenodd" fill="#006FBA" d="M305.547,140.134c0-27.847-15.163-41.018-53.147-54.964
					c-21.807-8.335-26.646-12.645-26.646-21.565c0-8.097,6.345-13.587,19.552-13.587c13.38,0,29.864,5.019,45.556,14.122
					l6.589-36.447c-15.231-7.342-29.889-11.656-52.692-11.656c-33.418,0-59.753,17.942-59.753,51.66
					c0,28.863,15.176,40.289,50.136,53.687c24.586,9.402,29.634,13.982,29.634,23.83c0,10.381-8.609,15.707-21.042,15.707
					c-17.46,0-37.44-6.598-55.452-16.189l-6.323,36.957c17.745,8.095,37.494,13.129,61.014,13.129
					C277.702,194.816,305.547,178.137,305.547,140.134z"/>
			</g>
		</g>
	</g>
</g>
<g>
	<g>
		<path fill="#2ABADA" d="M393.9,131.931c20.166-13.259,47.554-30.507,47.554-63.344c0-36.055-30.548-52.474-58.929-52.474
			c-42.341,0-59.414,33.659-61.817,38.912l32.67,15.286c2.037-3.646,11.126-18.187,26.321-18.187
			c9.818,0,19.398,8.062,19.398,20.597c0,10.096-11.374,17.715-25.535,27.366c-22.446,15.297-50.375,34.328-50.375,73.447
			c0,5.129,0.578,10.826,1.819,17.891h116.487V156.39H369.64C369.64,148.712,380.78,140.552,393.9,131.931z"/>
	</g>
</g>
<path fill="#FFFFFF" d="M532.391,104.478c-9.252,0-16.777-7.524-16.777-16.78c0-9.249,7.525-16.773,16.777-16.773
	s16.78,7.524,16.78,16.773C549.171,96.954,541.643,104.478,532.391,104.478z"/>
<path fill="#2ABADA" d="M542.61,69.361c-2.246-0.731-6.213-1.812-10.22-1.812c-11.13,0-20.151,9.022-20.151,20.148
	c0,7.568,4.011,14.034,10.34,17.598c2.787,1.571,9.874,3.704,11.868,4.77c8.47,4.529,14.23,13.457,14.23,23.735
	c0,14.858-12.046,26.913-26.909,26.913c-14.095,0-25.656-10.849-26.807-24.648l-36.055,7.839
	c5.877,29.77,32.117,52.226,63.614,52.226c35.814,0,64.85-29.031,64.85-64.85C587.371,102.469,568.603,77.813,542.61,69.361z
	 M532.391,101.103c-7.39,0-13.401-6.012-13.401-13.405c0-7.385,6.012-13.398,13.401-13.398c7.394,0,13.404,6.013,13.404,13.398
	C545.795,95.09,539.784,101.103,532.391,101.103z"/>
<g>
	<path fill="#2ABADA" d="M470.164,18.523l-7.104,80.951h36.271l4.625-45.998h41.658c24.641,0,33.6-19.98,33.6-34.953H470.164z"/>
</g>
</svg>
